<svg width="114.000000" height="11.000000" viewBox="0 0 114 11" fill="none" xmlns="http://www.w3.org/2000/svg" xmlns:xlink="http://www.w3.org/1999/xlink">
	<desc>
			Created with Pixso.
	</desc>
	<defs/>
	<path id="Vector" d="M9.65 9.91L9.63 4.24L6.88 8.86L5.53 8.86L2.78 4.36L2.78 9.91L0 9.91L0 -0.8L2.49 -0.8L6.25 5.38L9.92 -0.8L12.42 -0.8L12.45 9.91L9.65 9.91ZM51.86 7.57L51.86 9.91L43.26 9.91L43.26 -0.8L51.66 -0.8L51.66 1.54L46.26 1.54L46.26 3.35L51.02 3.35L51.02 5.61L46.26 5.61L46.26 7.57L51.86 7.57ZM64.8 -0.8L64.8 9.91L62.31 9.91L57.58 4.21L57.58 9.91L54.61 9.91L54.61 -0.8L57.11 -0.8L61.83 4.91L61.83 -0.8L64.8 -0.8ZM78.2 -0.8L78.2 9.91L75.7 9.91L70.98 4.21L70.98 9.91L68.01 9.91L68.01 -0.8L70.5 -0.8L75.23 4.91L75.23 -0.8L78.2 -0.8ZM81.4 -0.8L84.43 -0.8L84.43 9.91L81.4 9.91L81.4 -0.8ZM92.6 10.13C91.01 10.13 89.77 9.69 88.88 8.83Q88.74 8.68 88.61 8.53Q87.57 7.27 87.57 5.14L87.57 -0.8L90.6 -0.8L90.6 5.05C90.6 6.76 91.27 7.62 92.63 7.62C93.98 7.62 94.65 6.76 94.65 5.05L94.65 -0.8L97.63 -0.8L97.63 5.14C97.63 6.73 97.19 7.96 96.3 8.83C95.42 9.69 94.19 10.13 92.6 10.13ZM110.42 9.91L110.39 4.24L107.64 8.86L106.29 8.86L103.56 4.39L103.56 9.91L100.76 9.91L100.76 -0.8L103.25 -0.8L107.01 5.38L110.68 -0.8L113.18 -0.8L113.21 9.91L110.42 9.91Z" fill="#2A2367" fill-opacity="1.000000" fill-rule="evenodd"/>
</svg>
